# AST/ASF file generated using VICON BodyLanguage
# -----------------------------------------------
:version 1.10
:name VICON
:units
  mass 1.0
  length 0.45
  angle deg
:documentation
   .ast/.asf automatically generated from VICON data using
   VICON BodyBuilder and BodyLanguage model FoxedUp or BRILLIANT.MOD
:root
   order TX TY TZ RX RY RZ
   axis XYZ
   position 0 0 0  
   orientation 0 0 0 
:bonedata
  begin
     id 1 
     name lhipjoint
     direction 0.711131 -0.61297 0.344326 
     length 2.29162 
     axis 0 0 0  XYZ
  end
  begin
     id 2 
     name lfemur
     direction 0.34202 -0.939693 0  
     length 6.71424  
     axis 0 0 20  XYZ
    dof rx ry rz
    limits (-160.0 20.0)
           (-70.0 70.0)
           (-60.0 70.0)
  end
  begin
     id 3 
     name ltibia
     direction 0.34202 -0.939693 0   
     length 6.7087   
     axis 0 0 20   XYZ
    dof rx
    limits (-10.0 170.0)
  end
  begin
     id 4 
     name lfoot
     direction 0.0230374 -0.0632947 0.997729   
     length 1.56743   
     axis -90 7.62852e-016 20   XYZ
    dof rx rz
    limits (-45.0 90.0)
           (-70.0 20.0)
  end
  begin
     id 5 
     name ltoes
     direction 1.53585e-011 -4.21885e-011 1   
     length 0.802914   
     axis -90 7.62852e-016 20   XYZ
    dof rx
    limits (-90.0 20.0)
  end
  begin
     id 6 
     name rhipjoint
     direction -0.733192 -0.592884 0.333043   
     length 2.36925  
     axis 0 0 0  XYZ 
  end
  begin
     id 7 
     name rfemur
     direction -0.34202 -0.939693 0   
     length 6.67027   
     axis 0 0 -20   XYZ
    dof rx ry rz
    limits (-160.0 20.0)
           (-70.0 70.0)
           (-70.0 60.0)
  end
  begin
     id 8 
     name rtibia
     direction -0.34202 -0.939693 0   
     length 6.6862   
     axis 0 0 -20   XYZ
    dof rx
    limits (-10.0 170.0)
 end
 begin
     id 9 
     name rfoot
     direction -0.0949739 -0.260939 0.960672   
     length 1.67698  
     axis -90 -7.62852e-016 -20   XYZ
    dof rx rz
    limits (-45.0 90.0)
           (-20.0 70.0)
  end
  begin
     id 10 
     name rtoes
     direction -1.5353e-011 -4.21868e-011 1   
     length 0.846298   
     axis -90 -7.62852e-016 -20   XYZ
    dof rx
    limits (-90.0 20.0)
  end
  begin
     id 11 
     name lowerback
     direction -0.0206828 0.999785 -0.00109866   
     length 2.04382   
     axis 0 0 0   XYZ
    dof rx ry rz
    limits (-20.0 45.0)
           (-30.0 30.0)
           (-30.0 30.0)
  end
  begin
     id 12 
     name upperback
     direction -0.0105003 0.999727 -0.0208904   
     length 2.04538   
     axis 0 0 0   XYZ
    dof rx ry rz
    limits (-20.0 45.0)
           (-30.0 30.0)
           (-30.0 30.0)
  end
  begin
     id 13 
     name thorax
     direction -0.000416255 0.999808 -0.0196023   
     length 2.0399   
     axis 0 0 0   XYZ
    dof rx ry rz
    limits (-20.0 45.0)
           (-30.0 30.0)
           (-30.0 30.0)
  end
  begin
     id 14 
     name lowerneck
     direction 0.0627861 0.989205 0.13241   
     length 1.46207   
     axis 0 0 0   XYZ
    dof rx ry rz
    limits (-20.0 45.0)
           (-30.0 30.0)
           (-30.0 30.0)
  end
  begin
     id 15 
     name upperneck
     direction 0.00627179 0.994526 0.104303   
     length 1.41419   
     axis 0 0 0   XYZ
    dof rx ry rz
    limits (-20.0 45.0)
           (-30.0 30.0)
           (-30.0 30.0)
  end
  begin
     id 16
     name head
     direction -0.00443838 0.999688 0.0245968  
     length 1.50718  
     axis 0 0 0   XYZ
    dof rx ry rz
    limits (-20.0 45.0)
           (-30.0 30.0)
           (-30.0 30.0)
  end
  begin
     id 17 
     name lclavicle
     direction 0.758742 0.650995 -0.0227258  
     length 2.86888  
     axis 0 0 0   XYZ
    dof ry rz
    limits (-20.0 10.0)
           (0.0 20.0)
  end
  begin
     id 18 
     name lhumerus
     direction 1 -4.48962e-011 1.06664e-027   
     length 4.65776   
     axis -180 -30 -90   XYZ
    dof rx ry rz
    limits (-60.0 90.0)
           (-90.0 90.0)
           (-90.0 90.0)
  end
  begin
     id 19
     name lradius
     direction 1 -4.48968e-011 1.40404e-026   
     length 3.55539   
     axis -180 -30 -90   XYZ
    dof rx
    limits (-10.0 170.0)
  end
  begin
     id 20
     name lwrist
     direction 1 -4.48976e-011 3.32647e-026   
     length 1.77769   
     axis -2.20186e-014 90 90   XYZ
    dof ry
    limits (-180.0 0.0)
 end
  begin
     id 21 
     name lhand
     direction 1 -4.48982e-011 6.65293e-026   
     length 0.707264   
     axis -4.24514e-014 90 90   XYZ
    dof rx rz
    limits (-90.0 90.0)
           (-45.0 45.0)
  end
  begin
     id 22 
     name lfingers
     direction 1 -4.48966e-011 1.33059e-025   
     length 0.570215   
     axis -8.49028e-014 90 90   XYZ
    dof rx
    limits (0.0 90.0)
  end
  begin
     id 23
     name lthumb
     direction 0.707107 -6.3493e-011 0.707107   
     length 0.818718   
     axis -90 45 2.85299e-015   XYZ
    dof rx rz
    limits (-45.0 45.0)
           (-45.0 45.0)
  end
  begin
     id 24 
     name rclavicle
     direction -0.870343 0.482028 -0.100759   
     length 3.2251  
     axis 0 0 0   XYZ 
    dof ry rz
    limits (-10.0 20.0)
           (-20.0 0.0)
  end
  begin
     id 25 
     name rhumerus
     direction -1 -4.48974e-011 -9.45849e-028  
     length 4.71925   
     axis -180 30 90   XYZ
    dof rx ry rz
    limits (-90.0 60.0)
           (-90.0 90.0)
           (-90.0 90.0)
  end
  begin
     id 26 
     name rradius
     direction -1 -4.48965e-011 1.17607e-026   
     length 3.5699   
     axis -180 30 90   XYZ
    dof rx
    limits (-10.0 170.0)
  end
  begin
     id 27 
     name rwrist
     direction -1 -4.48968e-011 3.32647e-026   
     length 1.78495   
     axis -2.20186e-014 -90 -90   XYZ
    dof ry
    limits (-180.0 0.0)
  end
  begin
     id 28
     name rhand
     direction -1 -4.48995e-011 6.65293e-026   
     length 0.507757   
     axis -4.24514e-014 -90 -90   XYZ
    dof rx rz
    limits (-90.0 90.0)
           (-45.0 45.0)
  end
  begin
     id 29
     name rfingers
     direction -1 -4.48864e-011 1.33059e-025   
     length 0.409367   
     axis -8.49028e-014 -90 -90   XYZ
    dof rx
    limits (0.0 90.0)
  end
  begin
     id 30
     name rthumb
     direction -0.707107 -6.3494e-011 0.707107   
     length 0.587771   
     axis -90 -45 -2.85299e-015   XYZ
    dof rx rz
    limits (-45.0 45.0)
           (-45.0 45.0)
  end
:hierarchy
  begin
    root lhipjoint rhipjoint lowerback
    lhipjoint lfemur
    lfemur ltibia
    ltibia lfoot
    lfoot ltoes
    rhipjoint rfemur
    rfemur rtibia
    rtibia rfoot
    rfoot rtoes
    lowerback upperback
    upperback thorax
    thorax lowerneck lclavicle rclavicle
    lowerneck upperneck
    upperneck head
    lclavicle lhumerus
    lhumerus lradius
    lradius lwrist
    lwrist lhand lthumb
    lhand lfingers
    rclavicle rhumerus
    rhumerus rradius
    rradius rwrist
    rwrist rhand rthumb
    rhand rfingers
  end

#!OML:ASF E:\Steps\Project 1\Capture day 1\Session 2\Subject.ASF
:FULLY-SPECIFIED
:DEGREES
48
root 9.29961 16.3772 8.76136 -152.8 -0.780342 179.279
lowerback -28.0666 -1.12498 -6.6081
upperback -2.42261 -0.0851236 -0.665411
thorax 12.8793 -0.706602 2.94662
lowerneck -0.0105003 0.150462 -4.10512
upperneck 8.84226 -0.621561 6.89302
head 2.90206 -0.402574 2.98016
rclavicle 2.28602e-015 -1.59028e-014
rhumerus -33.4853 -17.5608 -81.3602
rradius 28.6037
rwrist 2.92859
rhand -10.6071 -50.3725
rfingers 7.12502
rthumb 15.3989 -79.779
lclavicle 2.28602e-015 -1.59028e-014
lhumerus -27.3335 4.74426 83.0143
lradius 19.8179
lwrist -10.4983
lhand -22.7281 -12.4243
lfingers 7.12502
lthumb 3.70569 17.5232
rfemur -26.4485 9.67254 15.0656
rtibia 9.60886
rfoot -19.8337 -8.35831
rtoes -28.8347
lfemur -27.322 -10.4149 -16.7701
ltibia 9.69309
lfoot -8.15788 4.75299
ltoes -42.8987
49
root 9.2996 16.3757 8.76198 -152.804 -0.73341 179.234
lowerback -28.0411 -1.13792 -6.6573
upperback -2.41192 -0.0846516 -0.681958
thorax 12.8782 -0.708192 2.95609
lowerneck -0.021831 0.158905 -4.08756
upperneck 8.84523 -0.60938 6.88149
head 2.90406 -0.395982 2.97327
rclavicle 3.27995e-015 2.94201e-014
rhumerus -33.4837 -17.4572 -81.4234
rradius 28.6316
rwrist 2.82416
rhand -10.7488 -50.4478
rfingers 7.12502
rthumb 15.2624 -79.8647
lclavicle 3.27995e-015 2.94201e-014
lhumerus -27.2445 4.69246 83.021
lradius 19.7643
lwrist -10.3721
lhand -22.7441 -12.7355
lfingers 7.12502
lthumb 3.69027 17.2123
rfemur -26.4735 9.66158 15.0175
rtibia 9.66565
rfoot -19.8171 -8.43415
rtoes -29.392
lfemur -27.3335 -10.3541 -16.8608
ltibia 9.73215
lfoot -8.09095 4.76375
ltoes -43.1612
50
root 9.29922 16.3772 8.76143 -152.855 -0.754622 179.199
lowerback -27.9442 -1.15072 -6.69425
upperback -2.42641 -0.0971941 -0.6871
thorax 12.8108 -0.71311 2.96722
lowerneck 0.0288695 0.163662 -4.07433
upperneck 8.83749 -0.605937 6.87879
head 2.89154 -0.395592 2.9693
rclavicle -7.95139e-016 -1.15295e-014
rhumerus -33.5942 -17.4815 -81.3919
rradius 28.7071
rwrist 2.86749
rhand -10.4004 -50.57
rfingers 7.12502
rthumb 15.5981 -79.9611
lclavicle -7.95139e-016 -1.15295e-014
lhumerus -27.2449 4.47829 83.0801
lradius 19.768
lwrist -10.1548
lhand -22.7079 -12.7313
lfingers 7.12502
lthumb 3.72523 17.2159
rfemur -26.4009 9.71357 14.9729
rtibia 9.65098
rfoot -19.8628 -8.50863
rtoes -29.3157
lfemur -27.3137 -10.4528 -16.8906
ltibia 9.79826
lfoot -8.11782 4.79274
ltoes -43.2801
51
root 9.29934 16.3797 8.76068 -152.906 -0.781426 179.199
lowerback -27.8089 -1.16745 -6.71289
upperback -2.43743 -0.123736 -0.668685
thorax 12.7288 -0.722493 2.99008
lowerneck -0.00909178 0.162001 -4.07935
upperneck 8.84473 -0.605643 6.87386
head 2.90107 -0.394511 2.96902
rclavicle -1.15295e-014 5.24792e-014
rhumerus -33.6511 -17.4784 -81.3452
rradius 28.7122
rwrist 2.88324
rhand -10.2077 -51.4103
rfingers 7.12502
rthumb 15.7837 -80.7868
lclavicle -1.15295e-014 5.24792e-014
lhumerus -27.2169 4.31656 83.1339
lradius 19.7423
lwrist -10.0169
lhand -22.6903 -12.3832
lfingers 7.12502
lthumb 3.74219 17.5637
rfemur -26.3081 9.712 14.983
rtibia 9.60532
rfoot -19.8916 -8.48097
rtoes -28.965
lfemur -27.2672 -10.5669 -16.8622
ltibia 9.80938
lfoot -8.23701 4.85688
ltoes -43.2428
52
root 9.29912 16.3801 8.76006 -152.873 -0.75603 179.194
lowerback -27.809 -1.16827 -6.73154
upperback -2.44371 -0.120581 -0.670506
thorax 12.721 -0.722284 2.99986
lowerneck -0.0592241 0.158744 -4.07861
upperneck 8.85331 -0.607108 6.86944
head 2.9134 -0.393739 2.96794
rclavicle 1.19271e-015 1.90833e-014
rhumerus -33.6766 -17.412 -81.3485
rradius 28.7125
rwrist 2.76275
rhand -10.4633 -53.0677
rfingers 7.12502
rthumb 15.5374 -82.4635
lclavicle 1.19271e-015 1.90833e-014
lhumerus -27.1891 4.07061 83.2173
lradius 19.7521
lwrist -9.72088
lhand -22.8271 -12.4005
lfingers 7.12502
lthumb 3.61003 17.5487
rfemur -26.3457 9.66488 14.9731
rtibia 9.61866
rfoot -19.953 -8.41726
rtoes -28.8833
lfemur -27.2935 -10.5136 -16.8829
ltibia 9.80645
lfoot -8.22068 4.8846
ltoes -43.6227
53
root 9.29792 16.3785 8.75648 -152.843 -0.704265 179.179
lowerback -27.9065 -1.16423 -6.74047
upperback -2.4332 -0.10519 -0.680824
thorax 12.7834 -0.718695 2.99822
lowerneck -0.0464789 0.165432 -4.11126
upperneck 8.85083 -0.597802 6.87571
head 2.91 -0.390233 2.97633
rclavicle -6.95746e-015 1.31198e-014
rhumerus -33.622 -17.3858 -81.3464
rradius 28.6608
rwrist 2.7251
rhand -10.4946 -53.1449
rfingers 7.12502
rthumb 15.5073 -82.5431
lclavicle -6.95746e-015 1.31198e-014
lhumerus -27.2729 3.8647 83.2919
lradius 19.8883
lwrist -9.40891
lhand -22.9438 -12.4175
lfingers 7.12502
lthumb 3.49741 17.5335
rfemur -26.3901 9.69717 14.9277
rtibia 9.64532
rfoot -19.9391 -8.50469
rtoes -29.0995
lfemur -27.2857 -10.4376 -16.9336
ltibia 9.7922
lfoot -8.15295 4.86067
ltoes -43.7704
